<svg xmlns="http://www.w3.org/2000/svg" viewBox="0 0 900 500" width="900" height="500">
  <defs>
    <linearGradient id="bg" x1="0%" y1="0%" x2="100%" y2="100%">
      <stop offset="0%" stop-color="#FDF0F6"/>
      <stop offset="50%" stop-color="#F2E6F9"/>
      <stop offset="100%" stop-color="#E8D5F5"/>
    </linearGradient>
    <linearGradient id="ovaryGrad" x1="0%" y1="0%" x2="100%" y2="100%">
      <stop offset="0%" stop-color="#D4729E"/>
      <stop offset="100%" stop-color="#9B4DB8"/>
    </linearGradient>
    <linearGradient id="molGrad" x1="0%" y1="0%" x2="100%" y2="100%">
      <stop offset="0%" stop-color="#C85490"/>
      <stop offset="100%" stop-color="#8B3DB0"/>
    </linearGradient>
    <linearGradient id="ringGrad" x1="0%" y1="0%" x2="100%" y2="100%">
      <stop offset="0%" stop-color="#E090C0"/>
      <stop offset="100%" stop-color="#A050C8"/>
    </linearGradient>
    <radialGradient id="glow1" cx="50%" cy="50%" r="50%">
      <stop offset="0%" stop-color="#F0B8D8" stop-opacity="0.6"/>
      <stop offset="100%" stop-color="#F0B8D8" stop-opacity="0"/>
    </radialGradient>
    <radialGradient id="glow2" cx="50%" cy="50%" r="50%">
      <stop offset="0%" stop-color="#C890E8" stop-opacity="0.5"/>
      <stop offset="100%" stop-color="#C890E8" stop-opacity="0"/>
    </radialGradient>
    <filter id="blur4">
      <feGaussianBlur stdDeviation="4"/>
    </filter>
    <filter id="blur12">
      <feGaussianBlur stdDeviation="12"/>
    </filter>
  </defs>

  <!-- Background -->
  <rect width="900" height="500" fill="url(#bg)"/>

  <!-- Large background glow circles -->
  <circle cx="160" cy="400" r="220" fill="url(#glow1)" filter="url(#blur12)"/>
  <circle cx="760" cy="120" r="200" fill="url(#glow2)" filter="url(#blur12)"/>
  <circle cx="450" cy="250" r="240" fill="#F8E8F5" opacity="0.25" filter="url(#blur12)"/>

  <!-- Dot grid background -->
  <g opacity="0.18" fill="#B070B0">
    <circle cx="60" cy="60" r="2.5"/><circle cx="120" cy="60" r="2.5"/><circle cx="180" cy="60" r="2.5"/><circle cx="240" cy="60" r="2.5"/><circle cx="300" cy="60" r="2.5"/><circle cx="360" cy="60" r="2.5"/><circle cx="420" cy="60" r="2.5"/><circle cx="480" cy="60" r="2.5"/><circle cx="540" cy="60" r="2.5"/><circle cx="600" cy="60" r="2.5"/><circle cx="660" cy="60" r="2.5"/><circle cx="720" cy="60" r="2.5"/><circle cx="780" cy="60" r="2.5"/><circle cx="840" cy="60" r="2.5"/>
    <circle cx="60" cy="120" r="2.5"/><circle cx="120" cy="120" r="2.5"/><circle cx="180" cy="120" r="2.5"/><circle cx="240" cy="120" r="2.5"/><circle cx="300" cy="120" r="2.5"/><circle cx="360" cy="120" r="2.5"/><circle cx="420" cy="120" r="2.5"/><circle cx="480" cy="120" r="2.5"/><circle cx="540" cy="120" r="2.5"/><circle cx="600" cy="120" r="2.5"/><circle cx="660" cy="120" r="2.5"/><circle cx="720" cy="120" r="2.5"/><circle cx="780" cy="120" r="2.5"/><circle cx="840" cy="120" r="2.5"/>
    <circle cx="60" cy="180" r="2.5"/><circle cx="120" cy="180" r="2.5"/><circle cx="180" cy="180" r="2.5"/><circle cx="240" cy="180" r="2.5"/><circle cx="300" cy="180" r="2.5"/><circle cx="360" cy="180" r="2.5"/><circle cx="420" cy="180" r="2.5"/><circle cx="480" cy="180" r="2.5"/><circle cx="540" cy="180" r="2.5"/><circle cx="600" cy="180" r="2.5"/><circle cx="660" cy="180" r="2.5"/><circle cx="720" cy="180" r="2.5"/><circle cx="780" cy="180" r="2.5"/><circle cx="840" cy="180" r="2.5"/>
    <circle cx="60" cy="240" r="2.5"/><circle cx="120" cy="240" r="2.5"/><circle cx="180" cy="240" r="2.5"/><circle cx="240" cy="240" r="2.5"/><circle cx="300" cy="240" r="2.5"/><circle cx="360" cy="240" r="2.5"/><circle cx="420" cy="240" r="2.5"/><circle cx="480" cy="240" r="2.5"/><circle cx="540" cy="240" r="2.5"/><circle cx="600" cy="240" r="2.5"/><circle cx="660" cy="240" r="2.5"/><circle cx="720" cy="240" r="2.5"/><circle cx="780" cy="240" r="2.5"/><circle cx="840" cy="240" r="2.5"/>
    <circle cx="60" cy="300" r="2.5"/><circle cx="120" cy="300" r="2.5"/><circle cx="180" cy="300" r="2.5"/><circle cx="240" cy="300" r="2.5"/><circle cx="300" cy="300" r="2.5"/><circle cx="360" cy="300" r="2.5"/><circle cx="420" cy="300" r="2.5"/><circle cx="480" cy="300" r="2.5"/><circle cx="540" cy="300" r="2.5"/><circle cx="600" cy="300" r="2.5"/><circle cx="660" cy="300" r="2.5"/><circle cx="720" cy="300" r="2.5"/><circle cx="780" cy="300" r="2.5"/><circle cx="840" cy="300" r="2.5"/>
    <circle cx="60" cy="360" r="2.5"/><circle cx="120" cy="360" r="2.5"/><circle cx="180" cy="360" r="2.5"/><circle cx="240" cy="360" r="2.5"/><circle cx="300" cy="360" r="2.5"/><circle cx="360" cy="360" r="2.5"/><circle cx="420" cy="360" r="2.5"/><circle cx="480" cy="360" r="2.5"/><circle cx="540" cy="360" r="2.5"/><circle cx="600" cy="360" r="2.5"/><circle cx="660" cy="360" r="2.5"/><circle cx="720" cy="360" r="2.5"/><circle cx="780" cy="360" r="2.5"/><circle cx="840" cy="360" r="2.5"/>
    <circle cx="60" cy="420" r="2.5"/><circle cx="120" cy="420" r="2.5"/><circle cx="180" cy="420" r="2.5"/><circle cx="240" cy="420" r="2.5"/><circle cx="300" cy="420" r="2.5"/><circle cx="360" cy="420" r="2.5"/><circle cx="420" cy="420" r="2.5"/><circle cx="480" cy="420" r="2.5"/><circle cx="540" cy="420" r="2.5"/><circle cx="600" cy="420" r="2.5"/><circle cx="660" cy="420" r="2.5"/><circle cx="720" cy="420" r="2.5"/><circle cx="780" cy="420" r="2.5"/><circle cx="840" cy="420" r="2.5"/>
  </g>

  <!-- Left: Estrogen hexagon molecule structure -->
  <g transform="translate(160, 240)">
    <!-- Outer hex ring -->
    <polygon points="0,-85 73,-42 73,42 0,85 -73,42 -73,-42" fill="none" stroke="url(#molGrad)" stroke-width="2.5" opacity="0.7"/>
    <!-- Inner hex ring -->
    <polygon points="0,-52 45,-26 45,26 0,52 -45,26 -45,-26" fill="none" stroke="url(#molGrad)" stroke-width="2" opacity="0.55"/>
    <!-- Connecting lines between rings -->
    <line x1="0" y1="-85" x2="0" y2="-52" stroke="#C860A0" stroke-width="2" opacity="0.5"/>
    <line x1="73" y1="-42" x2="45" y2="-26" stroke="#C860A0" stroke-width="2" opacity="0.5"/>
    <line x1="73" y1="42" x2="45" y2="26" stroke="#C860A0" stroke-width="2" opacity="0.5"/>
    <line x1="0" y1="85" x2="0" y2="52" stroke="#C860A0" stroke-width="2" opacity="0.5"/>
    <line x1="-73" y1="42" x2="-45" y2="26" stroke="#C860A0" stroke-width="2" opacity="0.5"/>
    <line x1="-73" y1="-42" x2="-45" y2="-26" stroke="#C860A0" stroke-width="2" opacity="0.5"/>
    <!-- Outer vertices -->
    <circle cx="0" cy="-85" r="7" fill="#D470A8" opacity="0.85"/>
    <circle cx="73" cy="-42" r="7" fill="#D470A8" opacity="0.85"/>
    <circle cx="73" cy="42" r="7" fill="#D470A8" opacity="0.85"/>
    <circle cx="0" cy="85" r="7" fill="#D470A8" opacity="0.85"/>
    <circle cx="-73" cy="42" r="7" fill="#D470A8" opacity="0.85"/>
    <circle cx="-73" cy="-42" r="7" fill="#D470A8" opacity="0.85"/>
    <!-- Inner vertices -->
    <circle cx="0" cy="-52" r="5" fill="#B850A0" opacity="0.75"/>
    <circle cx="45" cy="-26" r="5" fill="#B850A0" opacity="0.75"/>
    <circle cx="45" cy="26" r="5" fill="#B850A0" opacity="0.75"/>
    <circle cx="0" cy="52" r="5" fill="#B850A0" opacity="0.75"/>
    <circle cx="-45" cy="26" r="5" fill="#B850A0" opacity="0.75"/>
    <circle cx="-45" cy="-26" r="5" fill="#B850A0" opacity="0.75"/>
    <!-- Center circle -->
    <circle cx="0" cy="0" r="18" fill="url(#molGrad)" opacity="0.75"/>
    <circle cx="0" cy="0" r="10" fill="white" opacity="0.3"/>
    <!-- Side chains -->
    <line x1="0" y1="-85" x2="0" y2="-120" stroke="#C860A0" stroke-width="2.5" opacity="0.6"/>
    <line x1="73" y1="-42" x2="105" y2="-60" stroke="#C860A0" stroke-width="2.5" opacity="0.6"/>
    <line x1="-73" y1="-42" x2="-105" y2="-60" stroke="#C860A0" stroke-width="2.5" opacity="0.6"/>
    <circle cx="0" cy="-120" r="9" fill="#9B3D98" opacity="0.8"/>
    <circle cx="105" cy="-60" r="9" fill="#9B3D98" opacity="0.8"/>
    <circle cx="-105" cy="-60" r="9" fill="#9B3D98" opacity="0.8"/>
    <circle cx="0" cy="-120" r="5" fill="white" opacity="0.4"/>
    <circle cx="105" cy="-60" r="5" fill="white" opacity="0.4"/>
    <circle cx="-105" cy="-60" r="5" fill="white" opacity="0.4"/>
  </g>

  <!-- Center: Abstract reproductive anatomy -->
  <g transform="translate(450, 265)">
    <!-- Glow behind -->
    <ellipse cx="0" cy="10" rx="130" ry="100" fill="#F0C8E0" opacity="0.35" filter="url(#blur4)"/>
    <!-- Uterus body -->
    <path d="M-45,-65 C-70,-45 -80,-10 -68,15 C-55,42 -32,52 0,56 C32,52 55,42 68,15 C80,-10 70,-45 45,-65 C25,-82 -25,-82 -45,-65 Z" fill="url(#ovaryGrad)" opacity="0.88"/>
    <!-- Uterus highlight -->
    <path d="M-28,-55 C-45,-35 -48,0 -38,22" fill="none" stroke="white" stroke-width="2.5" stroke-linecap="round" opacity="0.35"/>
    <!-- Cervix channel -->
    <rect x="-10" y="52" width="20" height="28" rx="10" fill="#B050A0" opacity="0.75"/>
    <!-- Fallopian tubes - left -->
    <path d="M-68,15 C-95,-5 -128,5 -152,28 C-165,42 -162,62 -152,68" fill="none" stroke="#D060A8" stroke-width="5" stroke-linecap="round"/>
    <!-- Fallopian tubes - right -->
    <path d="M68,15 C95,-5 128,5 152,28 C165,42 162,62 152,68" fill="none" stroke="#D060A8" stroke-width="5" stroke-linecap="round"/>
    <!-- Fimbriae left -->
    <path d="M-152,68 C-160,75 -148,80 -155,88" fill="none" stroke="#D060A8" stroke-width="3" stroke-linecap="round"/>
    <path d="M-152,68 C-145,78 -148,85 -140,90" fill="none" stroke="#D060A8" stroke-width="3" stroke-linecap="round"/>
    <path d="M-152,68 C-158,62 -165,68 -168,78" fill="none" stroke="#D060A8" stroke-width="3" stroke-linecap="round"/>
    <!-- Fimbriae right -->
    <path d="M152,68 C160,75 148,80 155,88" fill="none" stroke="#D060A8" stroke-width="3" stroke-linecap="round"/>
    <path d="M152,68 C145,78 148,85 140,90" fill="none" stroke="#D060A8" stroke-width="3" stroke-linecap="round"/>
    <path d="M152,68 C158,62 165,68 168,78" fill="none" stroke="#D060A8" stroke-width="3" stroke-linecap="round"/>
    <!-- Left ovary with multiple follicles (PCOS pattern) -->
    <ellipse cx="-158" cy="74" rx="34" ry="26" fill="url(#ovaryGrad)" opacity="0.92"/>
    <circle cx="-168" cy="66" r="7" fill="none" stroke="white" stroke-width="2" opacity="0.75"/>
    <circle cx="-153" cy="64" r="6" fill="none" stroke="white" stroke-width="2" opacity="0.7"/>
    <circle cx="-163" cy="78" r="5" fill="none" stroke="white" stroke-width="2" opacity="0.65"/>
    <circle cx="-149" cy="76" r="7" fill="none" stroke="white" stroke-width="2" opacity="0.75"/>
    <circle cx="-170" cy="80" r="5" fill="none" stroke="white" stroke-width="1.5" opacity="0.6"/>
    <!-- Right ovary with multiple follicles -->
    <ellipse cx="158" cy="74" rx="34" ry="26" fill="url(#ovaryGrad)" opacity="0.92"/>
    <circle cx="168" cy="66" r="7" fill="none" stroke="white" stroke-width="2" opacity="0.75"/>
    <circle cx="153" cy="64" r="6" fill="none" stroke="white" stroke-width="2" opacity="0.7"/>
    <circle cx="163" cy="78" r="5" fill="none" stroke="white" stroke-width="2" opacity="0.65"/>
    <circle cx="149" cy="76" r="7" fill="none" stroke="white" stroke-width="2" opacity="0.75"/>
    <circle cx="170" cy="80" r="5" fill="none" stroke="white" stroke-width="1.5" opacity="0.6"/>
    <!-- Inner uterus detail -->
    <path d="M-30,-40 C-40,-20 -40,10 -28,30 C-15,50 15,55 30,30 C42,10 40,-20 30,-40" fill="#C858A0" opacity="0.4"/>
  </g>

  <!-- Right: second molecule (androgen/testosterone hex) -->
  <g transform="translate(745, 248)">
    <polygon points="0,-72 62,-36 62,36 0,72 -62,36 -62,-36" fill="none" stroke="url(#ringGrad)" stroke-width="2.5" opacity="0.65"/>
    <polygon points="0,-44 38,-22 38,22 0,44 -38,22 -38,-22" fill="none" stroke="url(#ringGrad)" stroke-width="2" opacity="0.5"/>
    <line x1="0" y1="-72" x2="0" y2="-44" stroke="#B870C8" stroke-width="2" opacity="0.5"/>
    <line x1="62" y1="-36" x2="38" y2="-22" stroke="#B870C8" stroke-width="2" opacity="0.5"/>
    <line x1="62" y1="36" x2="38" y2="22" stroke="#B870C8" stroke-width="2" opacity="0.5"/>
    <line x1="0" y1="72" x2="0" y2="44" stroke="#B870C8" stroke-width="2" opacity="0.5"/>
    <line x1="-62" y1="36" x2="-38" y2="22" stroke="#B870C8" stroke-width="2" opacity="0.5"/>
    <line x1="-62" y1="-36" x2="-38" y2="-22" stroke="#B870C8" stroke-width="2" opacity="0.5"/>
    <circle cx="0" cy="-72" r="7" fill="#C870C8" opacity="0.8"/>
    <circle cx="62" cy="-36" r="7" fill="#C870C8" opacity="0.8"/>
    <circle cx="62" cy="36" r="7" fill="#C870C8" opacity="0.8"/>
    <circle cx="0" cy="72" r="7" fill="#C870C8" opacity="0.8"/>
    <circle cx="-62" cy="36" r="7" fill="#C870C8" opacity="0.8"/>
    <circle cx="-62" cy="-36" r="7" fill="#C870C8" opacity="0.8"/>
    <circle cx="0" cy="-44" r="5" fill="#A050B8" opacity="0.7"/>
    <circle cx="38" cy="-22" r="5" fill="#A050B8" opacity="0.7"/>
    <circle cx="38" cy="22" r="5" fill="#A050B8" opacity="0.7"/>
    <circle cx="0" cy="44" r="5" fill="#A050B8" opacity="0.7"/>
    <circle cx="-38" cy="22" r="5" fill="#A050B8" opacity="0.7"/>
    <circle cx="-38" cy="-22" r="5" fill="#A050B8" opacity="0.7"/>
    <circle cx="0" cy="0" r="16" fill="url(#ringGrad)" opacity="0.7"/>
    <circle cx="0" cy="0" r="9" fill="white" opacity="0.25"/>
    <!-- Extensions -->
    <line x1="62" y1="-36" x2="92" y2="-52" stroke="#B870C8" stroke-width="2" opacity="0.5"/>
    <line x1="62" y1="36" x2="92" y2="52" stroke="#B870C8" stroke-width="2" opacity="0.5"/>
    <line x1="0" y1="-72" x2="0" y2="-100" stroke="#B870C8" stroke-width="2" opacity="0.5"/>
    <circle cx="92" cy="-52" r="8" fill="#8840B0" opacity="0.75"/>
    <circle cx="92" cy="52" r="8" fill="#8840B0" opacity="0.75"/>
    <circle cx="0" cy="-100" r="8" fill="#8840B0" opacity="0.75"/>
  </g>

  <!-- Dashed connection lines (hormone pathways) -->
  <path d="M263,240 C320,200 385,220 450,248" fill="none" stroke="#C860A0" stroke-width="1.5" stroke-dasharray="7,5" opacity="0.35"/>
  <path d="M638,248 C672,238 700,240 745,248" fill="none" stroke="#B060C0" stroke-width="1.5" stroke-dasharray="7,5" opacity="0.35"/>

  <!-- Floating small molecule clusters around scene -->
  <g transform="translate(340, 110)" opacity="0.55">
    <circle cx="0" cy="0" r="6" fill="#C858A0"/>
    <circle cx="18" cy="-10" r="5" fill="#9B48B0"/>
    <circle cx="18" cy="10" r="5" fill="#D870B0"/>
    <circle cx="-18" cy="0" r="4" fill="#B050A8"/>
    <line x1="0" y1="0" x2="18" y2="-10" stroke="#C858A0" stroke-width="1.5"/>
    <line x1="0" y1="0" x2="18" y2="10" stroke="#C858A0" stroke-width="1.5"/>
    <line x1="0" y1="0" x2="-18" y2="0" stroke="#C858A0" stroke-width="1.5"/>
  </g>
  <g transform="translate(570, 390)" opacity="0.5">
    <circle cx="0" cy="0" r="6" fill="#9B48B0"/>
    <circle cx="-20" cy="-8" r="5" fill="#D870B0"/>
    <circle cx="0" cy="-20" r="4" fill="#C858A0"/>
    <circle cx="20" cy="-8" r="5" fill="#8840A8"/>
    <line x1="0" y1="0" x2="-20" y2="-8" stroke="#9B48B0" stroke-width="1.5"/>
    <line x1="0" y1="0" x2="0" y2="-20" stroke="#9B48B0" stroke-width="1.5"/>
    <line x1="0" y1="0" x2="20" y2="-8" stroke="#9B48B0" stroke-width="1.5"/>
  </g>
  <g transform="translate(380, 400)" opacity="0.45">
    <circle cx="0" cy="0" r="5" fill="#C060A0"/>
    <circle cx="15" cy="10" r="4" fill="#A040B0"/>
    <circle cx="-15" cy="10" r="4" fill="#D070B8"/>
    <line x1="0" y1="0" x2="15" y2="10" stroke="#C060A0" stroke-width="1.5"/>
    <line x1="0" y1="0" x2="-15" y2="10" stroke="#C060A0" stroke-width="1.5"/>
  </g>
  <g transform="translate(650, 130)" opacity="0.48">
    <circle cx="0" cy="0" r="6" fill="#B060B8"/>
    <circle cx="20" cy="0" r="4" fill="#D078C8"/>
    <circle cx="10" cy="-17" r="4" fill="#9048A8"/>
    <circle cx="-10" cy="-17" r="4" fill="#C868B8"/>
    <circle cx="-20" cy="0" r="4" fill="#B060B8"/>
    <line x1="0" y1="0" x2="20" y2="0" stroke="#B060B8" stroke-width="1.5"/>
    <line x1="0" y1="0" x2="10" y2="-17" stroke="#B060B8" stroke-width="1.5"/>
    <line x1="0" y1="0" x2="-10" y2="-17" stroke="#B060B8" stroke-width="1.5"/>
    <line x1="0" y1="0" x2="-20" y2="0" stroke="#B060B8" stroke-width="1.5"/>
  </g>
  <!-- Lone floating dots -->
  <circle cx="310" cy="355" r="5" fill="#D470A8" opacity="0.4"/>
  <circle cx="325" cy="370" r="3.5" fill="#9B48B0" opacity="0.35"/>
  <circle cx="295" cy="375" r="4" fill="#C060A0" opacity="0.4"/>
  <circle cx="680" cy="310" r="5" fill="#B060B8" opacity="0.4"/>
  <circle cx="695" cy="325" r="3.5" fill="#D078C8" opacity="0.35"/>
  <circle cx="665" cy="320" r="4" fill="#9048A8" opacity="0.4"/>
  <circle cx="450" cy="80" r="6" fill="#D470A8" opacity="0.4"/>
  <circle cx="465" cy="95" r="4" fill="#B858A8" opacity="0.35"/>
  <circle cx="435" cy="95" r="4" fill="#9B48B0" opacity="0.35"/>

  <!-- Decorative arcs -->
  <path d="M0,460 C180,430 360,490 540,460 C720,430 820,480 900,460" fill="none" stroke="#C870B0" stroke-width="1.5" opacity="0.18"/>
  <path d="M0,480 C200,450 400,510 600,480 C750,458 830,495 900,480" fill="none" stroke="#A060C0" stroke-width="1.5" opacity="0.15"/>

  <!-- Top left corner accent circle -->
  <circle cx="30" cy="30" r="60" fill="#F8E0F0" opacity="0.25"/>
  <circle cx="30" cy="30" r="35" fill="#F0C8E8" opacity="0.2"/>
  <!-- Bottom right accent -->
  <circle cx="880" cy="480" r="70" fill="#E8D0F5" opacity="0.25"/>
  <circle cx="880" cy="480" r="40" fill="#DBBCF0" opacity="0.2"/>
</svg>
